<svg id="Layer_1" data-name="Layer 1" xmlns="http://www.w3.org/2000/svg" viewBox="0 0 24 24"><defs><style>.cls-1,.cls-2{fill:#f68a1f;}.cls-2{fill-rule:evenodd;}</style></defs><path class="cls-1" d="M19.87,13.86l-.14-9.25a.47.47,0,0,0-.46-.46h-.38a.46.46,0,0,0-.46.46l0,4.06,0,5.15a.45.45,0,0,1-.44.46h-.35a.45.45,0,0,1-.43-.42h0v0h0l0-1L17,4.6a.46.46,0,0,0-.46-.46h-.37a.47.47,0,0,0-.47.46l0,4.27,0,5a.45.45,0,0,1-.44.46h-.35a.45.45,0,0,1-.43-.42h0a.08.08,0,0,1,0,0l0-3.68-.08-5.55a.46.46,0,0,0-.46-.46H13.4a.45.45,0,0,0-.46.46l-.09,9.27h0v2.69a1.6,1.6,0,0,0,1.6,1.59H15v1.91h2.79V18.14h.53a1.59,1.59,0,0,0,1.59-1.59V13.86Z"/><path class="cls-1" d="M22.69.8a1.53,1.53,0,0,0-.86-.26H18.5a2,2,0,0,0,.14.72,1.91,1.91,0,0,0,.43.59,1.63,1.63,0,0,0,1.13.43h1.56V3.82a1.88,1.88,0,0,0,.12.66,1.84,1.84,0,0,0,.38.57,1.61,1.61,0,0,0,.56.37,1.53,1.53,0,0,0,.67.12h0V2.28a1.64,1.64,0,0,0-.22-.83A1.54,1.54,0,0,0,22.69.8Z"/><path class="cls-1" d="M23.25,22.74a1.65,1.65,0,0,0,.25-.86V18.54a1.74,1.74,0,0,0-.71.15,1.7,1.7,0,0,0-1,1.56V21.8H20.23a1.7,1.7,0,0,0-.67.13,1.61,1.61,0,0,0-.56.37,1.73,1.73,0,0,0-.38.57,1.88,1.88,0,0,0-.12.66h3.26a1.71,1.71,0,0,0,.83-.21,1.57,1.57,0,0,0,.66-.59Z"/><path class="cls-1" d="M1.31,23.29a1.52,1.52,0,0,0,.86.25H5.5a2,2,0,0,0-.14-.71,1.91,1.91,0,0,0-.43-.59,1.63,1.63,0,0,0-1.13-.43H2.24V20.27a1.84,1.84,0,0,0-.12-.66A1.73,1.73,0,0,0,1.74,19a1.61,1.61,0,0,0-.56-.37,1.7,1.7,0,0,0-.67-.13h0v3.27a1.64,1.64,0,0,0,.22.83A1.54,1.54,0,0,0,1.31,23.29Z"/><path class="cls-1" d="M.75,1.35a1.65,1.65,0,0,0-.25.86V5.54a1.58,1.58,0,0,0,.71-.14A1.67,1.67,0,0,0,1.8,5a1.66,1.66,0,0,0,.44-1.14V2.28H3.77a1.53,1.53,0,0,0,.67-.12A1.61,1.61,0,0,0,5,1.79a1.84,1.84,0,0,0,.38-.57A1.89,1.89,0,0,0,5.5.55H2.24a1.72,1.72,0,0,0-.83.22,1.57,1.57,0,0,0-.66.59Z"/><path class="cls-2" d="M8.58,4H5a1,1,0,0,0-1,1V8.63a1,1,0,0,0,1,1H8.58a1,1,0,0,0,1-1V5.05A1,1,0,0,0,8.58,4ZM8.07,8.12H5.51V5.56H8.07Z"/><path class="cls-1" d="M5.28,13.15H4V11.87H5.28Z"/><path class="cls-1" d="M6.56,11.88H5.28V10.6H6.56Z"/><path class="cls-2" d="M8.07,17v1.51H5.51V16H7V14.46H5a1,1,0,0,0-1,1V19a1,1,0,0,0,1,1H8.58a1,1,0,0,0,1-1V17Z"/><path class="cls-2" d="M9.07,15v1h1.52V14.46a1,1,0,0,0-1-1H8V15Z"/></svg>